{
    "packets": [
        {
            "codec_type": "video",
            "stream_index": 0,
            "pts": 10143990,
            "pts_time": "112.711000",
            "dts": 10143990,
            "dts_time": "112.711000",
            "duration": 3003,
            "duration_time": "0.033367",
            "size": "1786",
            "pos": "376",
            "flags": "___",
            "side_data_list": [
                {
                    "side_data_type": "MPEGTS Stream ID",
                    "id": 224
                }
            ]
        },
        {
            "codec_type": "video",
            "stream_index": 0,
            "pts": 10156050,
            "pts_time": "112.845000",
            "dts": 10147050,
            "dts_time": "112.745000",
            "duration": 3003,
            "duration_time": "0.033367",
            "size": "9312",
            "pos": "2820",
            "flags": "___",
            "side_data_list": [
                {
                    "side_data_type": "MPEGTS Stream ID",
                    "id": 224
                }
            ]
        },
        {
            "codec_type": "video",
            "stream_index": 0,
            "pts": 10150020,
            "pts_time": "112.778000",
            "dts": 10150020,
            "dts_time": "112.778000",
            "duration": 3003,
            "duration_time": "0.033367",
            "size": "2070",
            "pos": "12972",
            "flags": "___",
            "side_data_list": [
                {
                    "side_data_type": "MPEGTS Stream ID",
                    "id": 224
                }
            ]
        },
        {
            "codec_type": "video",
            "stream_index": 0,
            "pts": 10153080,
            "pts_time": "112.812000",
            "dts": 10153080,
            "dts_time": "112.812000",
            "duration": 3003,
            "duration_time": "0.033367",
            "size": "1967",
            "pos": "15792",
            "flags": "___",
            "side_data_list": [
                {
                    "side_data_type": "MPEGTS Stream ID",
                    "id": 224
                }
            ]
        },
        {
            "codec_type": "video",
            "stream_index": 0,
            "pts": 10165050,
            "pts_time": "112.945000",
            "dts": 10156050,
            "dts_time": "112.845000",
            "duration": 3003,
            "duration_time": "0.033367",
            "size": "10994",
            "pos": "17860",
            "flags": "___",
            "side_data_list": [
                {
                    "side_data_type": "MPEGTS Stream ID",
                    "id": 224
                }
            ]
        },
        {
            "codec_type": "video",
            "stream_index": 0,
            "pts": 10159020,
            "pts_time": "112.878000",
            "dts": 10159020,
            "dts_time": "112.878000",
            "duration": 3003,
            "duration_time": "0.033367",
            "size": "2468",
            "pos": "29704",
            "flags": "___",
            "side_data_list": [
                {
                    "side_data_type": "MPEGTS Stream ID",
                    "id": 224
                }
            ]
        },
        {
            "codec_type": "video",
            "stream_index": 0,
            "pts": 10162080,
            "pts_time": "112.912000",
            "dts": 10162080,
            "dts_time": "112.912000",
            "duration": 3003,
            "duration_time": "0.033367",
            "size": "2217",
            "pos": "32900",
            "flags": "___",
            "side_data_list": [
                {
                    "side_data_type": "MPEGTS Stream ID",
                    "id": 224
                }
            ]
        },
        {
            "codec_type": "video",
            "stream_index": 0,
            "pts": 10174050,
            "pts_time": "113.045000",
            "dts": 10165050,
            "dts_time": "112.945000",
            "duration": 3003,
            "duration_time": "0.033367",
            "size": "12707",
            "pos": "35908",
            "flags": "___",
            "side_data_list": [
                {
                    "side_data_type": "MPEGTS Stream ID",
                    "id": 224
                }
            ]
        },
        {
            "codec_type": "video",
            "stream_index": 0,
            "pts": 10168020,
            "pts_time": "112.978000",
            "dts": 10168020,
            "dts_time": "112.978000",
            "duration": 3003,
            "duration_time": "0.033367",
            "size": "2193",
            "pos": "49068",
            "flags": "___",
            "side_data_list": [
                {
                    "side_data_type": "MPEGTS Stream ID",
                    "id": 224
                }
            ]
        },
        {
            "codec_type": "video",
            "stream_index": 0,
            "pts": 10171080,
            "pts_time": "113.012000",
            "dts": 10171080,
            "dts_time": "113.012000",
            "duration": 3003,
            "duration_time": "0.033367",
            "size": "2282",
            "pos": "52076",
            "flags": "___",
            "side_data_list": [
                {
                    "side_data_type": "MPEGTS Stream ID",
                    "id": 224
                }
            ]
        },
        {
            "codec_type": "video",
            "stream_index": 0,
            "pts": 10183050,
            "pts_time": "113.145000",
            "dts": 10174050,
            "dts_time": "113.045000",
            "duration": 3003,
            "duration_time": "0.033367",
            "size": "12163",
            "pos": "55084",
            "flags": "___",
            "side_data_list": [
                {
                    "side_data_type": "MPEGTS Stream ID",
                    "id": 224
                }
            ]
        },
        {
            "codec_type": "video",
            "stream_index": 0,
            "pts": 10177020,
            "pts_time": "113.078000",
            "dts": 10177020,
            "dts_time": "113.078000",
            "duration": 3003,
            "duration_time": "0.033367",
            "size": "2224",
            "pos": "67680",
            "flags": "___",
            "side_data_list": [
                {
                    "side_data_type": "MPEGTS Stream ID",
                    "id": 224
                }
            ]
        },
        {
            "codec_type": "video",
            "stream_index": 0,
            "pts": 10180080,
            "pts_time": "113.112000",
            "dts": 10180080,
            "dts_time": "113.112000",
            "duration": 3003,
            "duration_time": "0.033367",
            "size": "2216",
            "pos": "70688",
            "flags": "___",
            "side_data_list": [
                {
                    "side_data_type": "MPEGTS Stream ID",
                    "id": 224
                }
            ]
        },
        {
            "codec_type": "video",
            "stream_index": 0,
            "pts": 10192050,
            "pts_time": "113.245000",
            "dts": 10183050,
            "dts_time": "113.145000",
            "duration": 3003,
            "duration_time": "0.033367",
            "size": "12009",
            "pos": "73696",
            "flags": "___",
            "side_data_list": [
                {
                    "side_data_type": "MPEGTS Stream ID",
                    "id": 224
                }
            ]
        },
        {
            "codec_type": "video",
            "stream_index": 0,
            "pts": 10186110,
            "pts_time": "113.179000",
            "dts": 10186110,
            "dts_time": "113.179000",
            "duration": 3003,
            "duration_time": "0.033367",
            "size": "2113",
            "pos": "86668",
            "flags": "___",
            "side_data_list": [
                {
                    "side_data_type": "MPEGTS Stream ID",
                    "id": 224
                }
            ]
        },
        {
            "codec_type": "video",
            "stream_index": 0,
            "pts": 10189080,
            "pts_time": "113.212000",
            "dts": 10189080,
            "dts_time": "113.212000",
            "duration": 3003,
            "duration_time": "0.033367",
            "size": "2196",
            "pos": "88924",
            "flags": "___",
            "side_data_list": [
                {
                    "side_data_type": "MPEGTS Stream ID",
                    "id": 224
                }
            ]
        },
        {
            "codec_type": "video",
            "stream_index": 0,
            "pts": 10201050,
            "pts_time": "113.345000",
            "dts": 10192050,
            "dts_time": "113.245000",
            "duration": 3003,
            "duration_time": "0.033367",
            "size": "11901",
            "pos": "91932",
            "flags": "___",
            "side_data_list": [
                {
                    "side_data_type": "MPEGTS Stream ID",
                    "id": 224
                }
            ]
        },
        {
            "codec_type": "video",
            "stream_index": 0,
            "pts": 10195110,
            "pts_time": "113.279000",
            "dts": 10195110,
            "dts_time": "113.279000",
            "duration": 3003,
            "duration_time": "0.033367",
            "size": "2237",
            "pos": "104716",
            "flags": "___",
            "side_data_list": [
                {
                    "side_data_type": "MPEGTS Stream ID",
                    "id": 224
                }
            ]
        },
        {
            "codec_type": "video",
            "stream_index": 0,
            "pts": 10198080,
            "pts_time": "113.312000",
            "dts": 10198080,
            "dts_time": "113.312000",
            "duration": 3003,
            "duration_time": "0.033367",
            "size": "2252",
            "pos": "107160",
            "flags": "___",
            "side_data_list": [
                {
                    "side_data_type": "MPEGTS Stream ID",
                    "id": 224
                }
            ]
        },
        {
            "codec_type": "video",
            "stream_index": 0,
            "pts": 10210050,
            "pts_time": "113.445000",
            "dts": 10201050,
            "dts_time": "113.345000",
            "duration": 3003,
            "duration_time": "0.033367",
            "size": "11621",
            "pos": "110168",
            "flags": "___",
            "side_data_list": [
                {
                    "side_data_type": "MPEGTS Stream ID",
                    "id": 224
                }
            ]
        },
        {
            "codec_type": "video",
            "stream_index": 0,
            "pts": 10204110,
            "pts_time": "113.379000",
            "dts": 10204110,
            "dts_time": "113.379000",
            "duration": 3003,
            "duration_time": "0.033367",
            "size": "2234",
            "pos": "122764",
            "flags": "___",
            "side_data_list": [
                {
                    "side_data_type": "MPEGTS Stream ID",
                    "id": 224
                }
            ]
        },
        {
            "codec_type": "video",
            "stream_index": 0,
            "pts": 10207080,
            "pts_time": "113.412000",
            "dts": 10207080,
            "dts_time": "113.412000",
            "duration": 3003,
            "duration_time": "0.033367",
            "size": "2320",
            "pos": "125772",
            "flags": "___",
            "side_data_list": [
                {
                    "side_data_type": "MPEGTS Stream ID",
                    "id": 224
                }
            ]
        },
        {
            "codec_type": "video",
            "stream_index": 0,
            "pts": 10219050,
            "pts_time": "113.545000",
            "dts": 10210050,
            "dts_time": "113.445000",
            "duration": 3003,
            "duration_time": "0.033367",
            "size": "11834",
            "pos": "128216",
            "flags": "___",
            "side_data_list": [
                {
                    "side_data_type": "MPEGTS Stream ID",
                    "id": 224
                }
            ]
        },
        {
            "codec_type": "video",
            "stream_index": 0,
            "pts": 10213110,
            "pts_time": "113.479000",
            "dts": 10213110,
            "dts_time": "113.479000",
            "duration": 3003,
            "duration_time": "0.033367",
            "size": "2028",
            "pos": "141000",
            "flags": "___",
            "side_data_list": [
                {
                    "side_data_type": "MPEGTS Stream ID",
                    "id": 224
                }
            ]
        },
        {
            "codec_type": "video",
            "stream_index": 0,
            "pts": 10216080,
            "pts_time": "113.512000",
            "dts": 10216080,
            "dts_time": "113.512000",
            "duration": 3003,
            "duration_time": "0.033367",
            "size": "2151",
            "pos": "143820",
            "flags": "___",
            "side_data_list": [
                {
                    "side_data_type": "MPEGTS Stream ID",
                    "id": 224
                }
            ]
        },
        {
            "codec_type": "video",
            "stream_index": 0,
            "pts": 10228140,
            "pts_time": "113.646000",
            "dts": 10219140,
            "dts_time": "113.546000",
            "duration": 3003,
            "duration_time": "0.033367",
            "size": "11285",
            "pos": "146076",
            "flags": "___",
            "side_data_list": [
                {
                    "side_data_type": "MPEGTS Stream ID",
                    "id": 224
                }
            ]
        },
        {
            "codec_type": "video",
            "stream_index": 0,
            "pts": 10222110,
            "pts_time": "113.579000",
            "dts": 10222110,
            "dts_time": "113.579000",
            "duration": 3003,
            "duration_time": "0.033367",
            "size": "2578",
            "pos": "158296",
            "flags": "___",
            "side_data_list": [
                {
                    "side_data_type": "MPEGTS Stream ID",
                    "id": 224
                }
            ]
        },
        {
            "codec_type": "video",
            "stream_index": 0,
            "pts": 10225080,
            "pts_time": "113.612000",
            "dts": 10225080,
            "dts_time": "113.612000",
            "duration": 3003,
            "duration_time": "0.033367",
            "size": "2534",
            "pos": "161680",
            "flags": "___",
            "side_data_list": [
                {
                    "side_data_type": "MPEGTS Stream ID",
                    "id": 224
                }
            ]
        },
        {
            "codec_type": "video",
            "stream_index": 0,
            "pts": 10237140,
            "pts_time": "113.746000",
            "dts": 10228140,
            "dts_time": "113.646000",
            "duration": 3003,
            "duration_time": "0.033367",
            "size": "13371",
            "pos": "164876",
            "flags": "___",
            "side_data_list": [
                {
                    "side_data_type": "MPEGTS Stream ID",
                    "id": 224
                }
            ]
        },
        {
            "codec_type": "video",
            "stream_index": 0,
            "pts": 10231110,
            "pts_time": "113.679000",
            "dts": 10231110,
            "dts_time": "113.679000",
            "duration": 3003,
            "duration_time": "0.033367",
            "size": "2267",
            "pos": "178600",
            "flags": "___",
            "side_data_list": [
                {
                    "side_data_type": "MPEGTS Stream ID",
                    "id": 224
                }
            ]
        },
        {
            "codec_type": "video",
            "stream_index": 0,
            "pts": 10234080,
            "pts_time": "113.712000",
            "dts": 10234080,
            "dts_time": "113.712000",
            "duration": 3003,
            "duration_time": "0.033367",
            "size": "2626",
            "pos": "181608",
            "flags": "___",
            "side_data_list": [
                {
                    "side_data_type": "MPEGTS Stream ID",
                    "id": 224
                }
            ]
        },
        {
            "codec_type": "video",
            "stream_index": 0,
            "pts": 10246140,
            "pts_time": "113.846000",
            "dts": 10237140,
            "dts_time": "113.746000",
            "duration": 3003,
            "duration_time": "0.033367",
            "size": "13043",
            "pos": "184992",
            "flags": "___",
            "side_data_list": [
                {
                    "side_data_type": "MPEGTS Stream ID",
                    "id": 224
                }
            ]
        },
        {
            "codec_type": "video",
            "stream_index": 0,
            "pts": 10240110,
            "pts_time": "113.779000",
            "dts": 10240110,
            "dts_time": "113.779000",
            "duration": 3003,
            "duration_time": "0.033367",
            "size": "2489",
            "pos": "198528",
            "flags": "___",
            "side_data_list": [
                {
                    "side_data_type": "MPEGTS Stream ID",
                    "id": 224
                }
            ]
        },
        {
            "codec_type": "video",
            "stream_index": 0,
            "pts": 10243170,
            "pts_time": "113.813000",
            "dts": 10243170,
            "dts_time": "113.813000",
            "duration": 3003,
            "duration_time": "0.033367",
            "size": "2331",
            "pos": "201724",
            "flags": "___",
            "side_data_list": [
                {
                    "side_data_type": "MPEGTS Stream ID",
                    "id": 224
                }
            ]
        },
        {
            "codec_type": "video",
            "stream_index": 0,
            "pts": 10255140,
            "pts_time": "113.946000",
            "dts": 10246140,
            "dts_time": "113.846000",
            "duration": 3003,
            "duration_time": "0.033367",
            "size": "12570",
            "pos": "204732",
            "flags": "___",
            "side_data_list": [
                {
                    "side_data_type": "MPEGTS Stream ID",
                    "id": 224
                }
            ]
        },
        {
            "codec_type": "video",
            "stream_index": 0,
            "pts": 10249110,
            "pts_time": "113.879000",
            "dts": 10249110,
            "dts_time": "113.879000",
            "duration": 3003,
            "duration_time": "0.033367",
            "size": "2722",
            "pos": "218268",
            "flags": "___",
            "side_data_list": [
                {
                    "side_data_type": "MPEGTS Stream ID",
                    "id": 224
                }
            ]
        },
        {
            "codec_type": "video",
            "stream_index": 0,
            "pts": 10252170,
            "pts_time": "113.913000",
            "dts": 10252170,
            "dts_time": "113.913000",
            "duration": 3003,
            "duration_time": "0.033367",
            "size": "2900",
            "pos": "221088",
            "flags": "___",
            "side_data_list": [
                {
                    "side_data_type": "MPEGTS Stream ID",
                    "id": 224
                }
            ]
        },
        {
            "codec_type": "video",
            "stream_index": 0,
            "pts": 10264140,
            "pts_time": "114.046000",
            "dts": 10255140,
            "dts_time": "113.946000",
            "duration": 3003,
            "duration_time": "0.033367",
            "size": "14091",
            "pos": "224660",
            "flags": "___",
            "side_data_list": [
                {
                    "side_data_type": "MPEGTS Stream ID",
                    "id": 224
                }
            ]
        },
        {
            "codec_type": "video",
            "stream_index": 0,
            "pts": 10258110,
            "pts_time": "113.979000",
            "dts": 10258110,
            "dts_time": "113.979000",
            "duration": 3003,
            "duration_time": "0.033367",
            "size": "2741",
            "pos": "239700",
            "flags": "___",
            "side_data_list": [
                {
                    "side_data_type": "MPEGTS Stream ID",
                    "id": 224
                }
            ]
        },
        {
            "codec_type": "video",
            "stream_index": 0,
            "pts": 10261170,
            "pts_time": "114.013000",
            "dts": 10261170,
            "dts_time": "114.013000",
            "duration": 3003,
            "duration_time": "0.033367",
            "size": "2438",
            "pos": "242708",
            "flags": "___",
            "side_data_list": [
                {
                    "side_data_type": "MPEGTS Stream ID",
                    "id": 224
                }
            ]
        },
        {
            "codec_type": "video",
            "stream_index": 0,
            "pts": 10273140,
            "pts_time": "114.146000",
            "dts": 10264140,
            "dts_time": "114.046000",
            "duration": 3003,
            "duration_time": "0.033367",
            "size": "14109",
            "pos": "245904",
            "flags": "___",
            "side_data_list": [
                {
                    "side_data_type": "MPEGTS Stream ID",
                    "id": 224
                }
            ]
        },
        {
            "codec_type": "video",
            "stream_index": 0,
            "pts": 10267110,
            "pts_time": "114.079000",
            "dts": 10267110,
            "dts_time": "114.079000",
            "duration": 3003,
            "duration_time": "0.033367",
            "size": "2617",
            "pos": "260944",
            "flags": "___",
            "side_data_list": [
                {
                    "side_data_type": "MPEGTS Stream ID",
                    "id": 224
                }
            ]
        },
        {
            "codec_type": "video",
            "stream_index": 0,
            "pts": 10270170,
            "pts_time": "114.113000",
            "dts": 10270170,
            "dts_time": "114.113000",
            "duration": 3003,
            "duration_time": "0.033367",
            "size": "2723",
            "pos": "264328",
            "flags": "___",
            "side_data_list": [
                {
                    "side_data_type": "MPEGTS Stream ID",
                    "id": 224
                }
            ]
        },
        {
            "codec_type": "video",
            "stream_index": 0,
            "pts": 10282140,
            "pts_time": "114.246000",
            "dts": 10273140,
            "dts_time": "114.146000",
            "duration": 3003,
            "duration_time": "0.033367",
            "size": "13848",
            "pos": "267148",
            "flags": "___",
            "side_data_list": [
                {
                    "side_data_type": "MPEGTS Stream ID",
                    "id": 224
                }
            ]
        },
        {
            "codec_type": "video",
            "stream_index": 0,
            "pts": 10276200,
            "pts_time": "114.180000",
            "dts": 10276200,
            "dts_time": "114.180000",
            "duration": 3003,
            "duration_time": "0.033367",
            "size": "2697",
            "pos": "282000",
            "flags": "___",
            "side_data_list": [
                {
                    "side_data_type": "MPEGTS Stream ID",
                    "id": 224
                }
            ]
        },
        {
            "codec_type": "video",
            "stream_index": 0,
            "pts": 10279170,
            "pts_time": "114.213000",
            "dts": 10279170,
            "dts_time": "114.213000",
            "duration": 3003,
            "duration_time": "0.033367",
            "size": "2780",
            "pos": "285384",
            "flags": "___",
            "side_data_list": [
                {
                    "side_data_type": "MPEGTS Stream ID",
                    "id": 224
                }
            ]
        },
        {
            "codec_type": "video",
            "stream_index": 0,
            "pts": 10291140,
            "pts_time": "114.346000",
            "dts": 10282140,
            "dts_time": "114.246000",
            "duration": 3003,
            "duration_time": "0.033367",
            "size": "13803",
            "pos": "288956",
            "flags": "___",
            "side_data_list": [
                {
                    "side_data_type": "MPEGTS Stream ID",
                    "id": 224
                }
            ]
        },
        {
            "codec_type": "video",
            "stream_index": 0,
            "pts": 10285200,
            "pts_time": "114.280000",
            "dts": 10285200,
            "dts_time": "114.280000",
            "duration": 3003,
            "duration_time": "0.033367",
            "size": "2831",
            "pos": "303244",
            "flags": "___",
            "side_data_list": [
                {
                    "side_data_type": "MPEGTS Stream ID",
                    "id": 224
                }
            ]
        },
        {
            "codec_type": "video",
            "stream_index": 0,
            "pts": 10288170,
            "pts_time": "114.313000",
            "dts": 10288170,
            "dts_time": "114.313000",
            "duration": 3003,
            "duration_time": "0.033367",
            "size": "2740",
            "pos": "306816",
            "flags": "___",
            "side_data_list": [
                {
                    "side_data_type": "MPEGTS Stream ID",
                    "id": 224
                }
            ]
        },
        {
            "codec_type": "video",
            "stream_index": 0,
            "pts": 10300140,
            "pts_time": "114.446000",
            "dts": 10291140,
            "dts_time": "114.346000",
            "duration": 3003,
            "duration_time": "0.033367",
            "size": "13566",
            "pos": "310388",
            "flags": "___",
            "side_data_list": [
                {
                    "side_data_type": "MPEGTS Stream ID",
                    "id": 224
                }
            ]
        },
        {
            "codec_type": "video",
            "stream_index": 0,
            "pts": 10294200,
            "pts_time": "114.380000",
            "dts": 10294200,
            "dts_time": "114.380000",
            "duration": 3003,
            "duration_time": "0.033367",
            "size": "2687",
            "pos": "324300",
            "flags": "___",
            "side_data_list": [
                {
                    "side_data_type": "MPEGTS Stream ID",
                    "id": 224
                }
            ]
        },
        {
            "codec_type": "video",
            "stream_index": 0,
            "pts": 10297170,
            "pts_time": "114.413000",
            "dts": 10297170,
            "dts_time": "114.413000",
            "duration": 3003,
            "duration_time": "0.033367",
            "size": "2583",
            "pos": "327684",
            "flags": "___",
            "side_data_list": [
                {
                    "side_data_type": "MPEGTS Stream ID",
                    "id": 224
                }
            ]
        },
        {
            "codec_type": "video",
            "stream_index": 0,
            "pts": 10309140,
            "pts_time": "114.546000",
            "dts": 10300140,
            "dts_time": "114.446000",
            "duration": 3003,
            "duration_time": "0.033367",
            "size": "13561",
            "pos": "331068",
            "flags": "___",
            "side_data_list": [
                {
                    "side_data_type": "MPEGTS Stream ID",
                    "id": 224
                }
            ]
        },
        {
            "codec_type": "video",
            "stream_index": 0,
            "pts": 10303200,
            "pts_time": "114.480000",
            "dts": 10303200,
            "dts_time": "114.480000",
            "duration": 3003,
            "duration_time": "0.033367",
            "size": "2652",
            "pos": "345544",
            "flags": "___",
            "side_data_list": [
                {
                    "side_data_type": "MPEGTS Stream ID",
                    "id": 224
                }
            ]
        },
        {
            "codec_type": "video",
            "stream_index": 0,
            "pts": 10306170,
            "pts_time": "114.513000",
            "dts": 10306170,
            "dts_time": "114.513000",
            "duration": 3003,
            "duration_time": "0.033367",
            "size": "2498",
            "pos": "348364",
            "flags": "___",
            "side_data_list": [
                {
                    "side_data_type": "MPEGTS Stream ID",
                    "id": 224
                }
            ]
        },
        {
            "codec_type": "video",
            "stream_index": 0,
            "pts": 10318230,
            "pts_time": "114.647000",
            "dts": 10309230,
            "dts_time": "114.547000",
            "duration": 3003,
            "duration_time": "0.033367",
            "size": "13355",
            "pos": "351560",
            "flags": "___",
            "side_data_list": [
                {
                    "side_data_type": "MPEGTS Stream ID",
                    "id": 224
                }
            ]
        },
        {
            "codec_type": "video",
            "stream_index": 0,
            "pts": 10312200,
            "pts_time": "114.580000",
            "dts": 10312200,
            "dts_time": "114.580000",
            "duration": 3003,
            "duration_time": "0.033367",
            "size": "2397",
            "pos": "365848",
            "flags": "___",
            "side_data_list": [
                {
                    "side_data_type": "MPEGTS Stream ID",
                    "id": 224
                }
            ]
        },
        {
            "codec_type": "video",
            "stream_index": 0,
            "pts": 10315170,
            "pts_time": "114.613000",
            "dts": 10315170,
            "dts_time": "114.613000",
            "duration": 3003,
            "duration_time": "0.033367",
            "size": "2572",
            "pos": "368480",
            "flags": "___",
            "side_data_list": [
                {
                    "side_data_type": "MPEGTS Stream ID",
                    "id": 224
                }
            ]
        },
        {
            "codec_type": "video",
            "stream_index": 0,
            "pts": 10327230,
            "pts_time": "114.747000",
            "dts": 10318230,
            "dts_time": "114.647000",
            "duration": 3003,
            "duration_time": "0.033367",
            "size": "13579",
            "pos": "371864",
            "flags": "___",
            "side_data_list": [
                {
                    "side_data_type": "MPEGTS Stream ID",
                    "id": 224
                }
            ]
        },
        {
            "codec_type": "video",
            "stream_index": 0,
            "pts": 10321200,
            "pts_time": "114.680000",
            "dts": 10321200,
            "dts_time": "114.680000",
            "duration": 3003,
            "duration_time": "0.033367",
            "size": "2559",
            "pos": "386340",
            "flags": "___",
            "side_data_list": [
                {
                    "side_data_type": "MPEGTS Stream ID",
                    "id": 224
                }
            ]
        },
        {
            "codec_type": "video",
            "stream_index": 0,
            "pts": 10324170,
            "pts_time": "114.713000",
            "dts": 10324170,
            "dts_time": "114.713000",
            "duration": 3003,
            "duration_time": "0.033367",
            "size": "2564",
            "pos": "389724",
            "flags": "___",
            "side_data_list": [
                {
                    "side_data_type": "MPEGTS Stream ID",
                    "id": 224
                }
            ]
        },
        {
            "codec_type": "video",
            "stream_index": 0,
            "pts": 10333170,
            "pts_time": "114.813000",
            "dts": 10327230,
            "dts_time": "114.747000",
            "duration": 3003,
            "duration_time": "0.033367",
            "size": "12905",
            "pos": "392544",
            "flags": "___",
            "side_data_list": [
                {
                    "side_data_type": "MPEGTS Stream ID",
                    "id": 224
                }
            ]
        },
        {
            "codec_type": "video",
            "stream_index": 0,
            "pts": 10330200,
            "pts_time": "114.780000",
            "dts": 10330200,
            "dts_time": "114.780000",
            "duration": 3003,
            "duration_time": "0.033367",
            "size": "2321",
            "pos": "406456",
            "flags": "___",
            "side_data_list": [
                {
                    "side_data_type": "MPEGTS Stream ID",
                    "id": 224
                }
            ]
        },
        {
            "codec_type": "video",
            "stream_index": 0,
            "pts": 10336230,
            "pts_time": "114.847000",
            "dts": 10333260,
            "dts_time": "114.814000",
            "duration": 3003,
            "duration_time": "0.033367",
            "size": "30331",
            "pos": "412848",
            "flags": "K__",
            "side_data_list": [
                {
                    "side_data_type": "MPEGTS Stream ID",
                    "id": 224
                }
            ]
        },
        {
            "codec_type": "video",
            "stream_index": 0,
            "pts": 10345230,
            "pts_time": "114.947000",
            "dts": 10336230,
            "dts_time": "114.847000",
            "duration": 3003,
            "duration_time": "0.033367",
            "size": "12976",
            "pos": "443868",
            "flags": "___",
            "side_data_list": [
                {
                    "side_data_type": "MPEGTS Stream ID",
                    "id": 224
                }
            ]
        },
        {
            "codec_type": "video",
            "stream_index": 0,
            "pts": 10339200,
            "pts_time": "114.880000",
            "dts": 10339200,
            "dts_time": "114.880000",
            "duration": 3003,
            "duration_time": "0.033367",
            "size": "2540",
            "pos": "457780",
            "flags": "___",
            "side_data_list": [
                {
                    "side_data_type": "MPEGTS Stream ID",
                    "id": 224
                }
            ]
        },
        {
            "codec_type": "video",
            "stream_index": 0,
            "pts": 10342260,
            "pts_time": "114.914000",
            "dts": 10342260,
            "dts_time": "114.914000",
            "duration": 3003,
            "duration_time": "0.033367",
            "size": "2555",
            "pos": "460976",
            "flags": "___",
            "side_data_list": [
                {
                    "side_data_type": "MPEGTS Stream ID",
                    "id": 224
                }
            ]
        },
        {
            "codec_type": "video",
            "stream_index": 0,
            "pts": 10354230,
            "pts_time": "115.047000",
            "dts": 10345230,
            "dts_time": "114.947000",
            "duration": 3003,
            "duration_time": "0.033367",
            "size": "13615",
            "pos": "464360",
            "flags": "___",
            "side_data_list": [
                {
                    "side_data_type": "MPEGTS Stream ID",
                    "id": 224
                }
            ]
        },
        {
            "codec_type": "video",
            "stream_index": 0,
            "pts": 10348200,
            "pts_time": "114.980000",
            "dts": 10348200,
            "dts_time": "114.980000",
            "duration": 3003,
            "duration_time": "0.033367",
            "size": "2678",
            "pos": "478460",
            "flags": "___",
            "side_data_list": [
                {
                    "side_data_type": "MPEGTS Stream ID",
                    "id": 224
                }
            ]
        },
        {
            "codec_type": "video",
            "stream_index": 0,
            "pts": 10351260,
            "pts_time": "115.014000",
            "dts": 10351260,
            "dts_time": "115.014000",
            "duration": 3003,
            "duration_time": "0.033367",
            "size": "2477",
            "pos": "481844",
            "flags": "___",
            "side_data_list": [
                {
                    "side_data_type": "MPEGTS Stream ID",
                    "id": 224
                }
            ]
        },
        {
            "codec_type": "video",
            "stream_index": 0,
            "pts": 10363230,
            "pts_time": "115.147000",
            "dts": 10354230,
            "dts_time": "115.047000",
            "duration": 3003,
            "duration_time": "0.033367",
            "size": "13637",
            "pos": "485040",
            "flags": "___",
            "side_data_list": [
                {
                    "side_data_type": "MPEGTS Stream ID",
                    "id": 224
                }
            ]
        },
        {
            "codec_type": "video",
            "stream_index": 0,
            "pts": 10357200,
            "pts_time": "115.080000",
            "dts": 10357200,
            "dts_time": "115.080000",
            "duration": 3003,
            "duration_time": "0.033367",
            "size": "2511",
            "pos": "499140",
            "flags": "___",
            "side_data_list": [
                {
                    "side_data_type": "MPEGTS Stream ID",
                    "id": 224
                }
            ]
        },
        {
            "codec_type": "video",
            "stream_index": 0,
            "pts": 10360260,
            "pts_time": "115.114000",
            "dts": 10360260,
            "dts_time": "115.114000",
            "duration": 3003,
            "duration_time": "0.033367",
            "size": "2558",
            "pos": "502336",
            "flags": "___",
            "side_data_list": [
                {
                    "side_data_type": "MPEGTS Stream ID",
                    "id": 224
                }
            ]
        },
        {
            "codec_type": "video",
            "stream_index": 0,
            "pts": 10372230,
            "pts_time": "115.247000",
            "dts": 10363230,
            "dts_time": "115.147000",
            "duration": 3003,
            "duration_time": "0.033367",
            "size": "13583",
            "pos": "505720",
            "flags": "___",
            "side_data_list": [
                {
                    "side_data_type": "MPEGTS Stream ID",
                    "id": 224
                }
            ]
        },
        {
            "codec_type": "video",
            "stream_index": 0,
            "pts": 10366290,
            "pts_time": "115.181000",
            "dts": 10366290,
            "dts_time": "115.181000",
            "duration": 3003,
            "duration_time": "0.033367",
            "size": "2598",
            "pos": "520196",
            "flags": "___",
            "side_data_list": [
                {
                    "side_data_type": "MPEGTS Stream ID",
                    "id": 224
                }
            ]
        },
        {
            "codec_type": "video",
            "stream_index": 0,
            "pts": 10369260,
            "pts_time": "115.214000",
            "dts": 10369260,
            "dts_time": "115.214000",
            "duration": 3003,
            "duration_time": "0.033367",
            "size": "2518",
            "pos": "523016",
            "flags": "___",
            "side_data_list": [
                {
                    "side_data_type": "MPEGTS Stream ID",
                    "id": 224
                }
            ]
        },
        {
            "codec_type": "video",
            "stream_index": 0,
            "pts": 10378170,
            "pts_time": "115.313000",
            "dts": 10372230,
            "dts_time": "115.247000",
            "duration": 3003,
            "duration_time": "0.033367",
            "size": "2836",
            "pos": "526212",
            "flags": "___",
            "side_data_list": [
                {
                    "side_data_type": "MPEGTS Stream ID",
                    "id": 224
                }
            ]
        },
        {
            "codec_type": "video",
            "stream_index": 0,
            "pts": 10375290,
            "pts_time": "115.281000",
            "dts": 10375290,
            "dts_time": "115.281000",
            "duration": 3003,
            "duration_time": "0.033367",
            "size": "1993",
            "pos": "529784",
            "flags": "___"
        }
    ]
}
